<svg width="50" height="60" viewBox="0 0 50 60" fill="none" xmlns="http://www.w3.org/2000/svg">
<path fill-rule="evenodd" clip-rule="evenodd" d="M24.2013 10.3426C24.5181 9.50585 24.6913 8.59952 24.6913 7.65306C24.6913 3.42639 21.2367 0 16.9752 0C12.7138 0 9.25918 3.42639 9.25918 7.65306C9.25918 11.8797 12.7138 15.3061 16.9752 15.3061C18.4825 15.3061 19.8889 14.8774 21.0772 14.1363L30.7039 22.1481C30.407 23.0802 30.2469 24.0726 30.2469 25.1021C30.2469 26.5608 30.5684 27.9451 31.1449 29.1891L20.1943 38.3027C18.0609 36.5581 15.3266 35.5102 12.3457 35.5102C5.52735 35.5102 0 40.9924 0 47.7551C0 54.5178 5.52735 60 12.3457 60C19.164 60 24.6914 54.5178 24.6914 47.7551C24.6914 45.7187 24.1902 43.7984 23.3035 42.109L34.263 32.9879C35.9023 34.1884 37.9293 34.898 40.1235 34.898C45.5781 34.898 50 30.5122 50 25.1021C50 19.6919 45.5781 15.3062 40.1235 15.3062C37.5061 15.3062 35.1265 16.316 33.3592 17.9642L24.2013 10.3426Z" fill="#1D5EA1"/>
</svg>
